<?xml version="1.0" encoding="utf-8"?>
<!-- Generator: Adobe Illustrator 25.4.1, SVG Export Plug-In . SVG Version: 6.00 Build 0)  -->
<svg version="1.1" id="Calque_1" xmlns="http://www.w3.org/2000/svg" xmlns:xlink="http://www.w3.org/1999/xlink" x="0px" y="0px"
	 viewBox="0 0 51 51" style="enable-background:new 0 0 51 51;" xml:space="preserve">
<style type="text/css">
	.st0{fill:#FFFFFF;}
	.st1{fill:#914E72;}
</style>
<g>
	<path class="st0" d="M8.6,46.6c2.5-2.6,3-4.5,16.9-18.4C39.4,42.1,39.9,44,42.4,46.6l2.9-2.9c-2.6-2.5-4.5-3-18.4-16.9
		C40.8,13,42.7,12.4,45.3,10l-2.9-2.9c-2.5,2.6-3,4.5-16.9,18.4C11.6,11.6,11.1,9.7,8.6,7.1L5.7,10c2.6,2.5,4.5,3,18.4,16.9
		C10.2,40.8,8.4,41.3,5.7,43.8L8.6,46.6z"/>
</g>
</svg>
